<?xml version="1.0" encoding="UTF-8"?>
<svg width="80" height="80" viewBox="0 0 80 80" fill="none" xmlns="http://www.w3.org/2000/svg" role="img" aria-label="Apple filter">
  <defs>
    <radialGradient id="glass" cx="28" cy="18" r="58" gradientUnits="userSpaceOnUse"><stop offset="0" stop-color="#ffffff" stop-opacity="0.16"/><stop offset="0.34" stop-color="#dfe7ff" stop-opacity="0.06"/><stop offset="0.68" stop-color="#15171c" stop-opacity="0.66"/><stop offset="1" stop-color="#020203" stop-opacity="1"/></radialGradient>
    <linearGradient id="rim" x1="19" y1="8" x2="62" y2="71" gradientUnits="userSpaceOnUse"><stop stop-color="#ffffff" stop-opacity="0.36"/><stop offset="0.42" stop-color="#ffffff" stop-opacity="0.06"/><stop offset="0.72" stop-color="#ffffff" stop-opacity="0.14"/><stop offset="1" stop-color="#ffffff" stop-opacity="0.26"/></linearGradient>
    <filter id="softShadow" x="-20%" y="-20%" width="140%" height="140%"><feDropShadow dx="0" dy="5" stdDeviation="5" flood-color="#000" flood-opacity="0.70"/></filter>
    <filter id="glow" x="-80%" y="-80%" width="260%" height="260%"><feGaussianBlur stdDeviation="1.1" result="blur"/><feMerge><feMergeNode in="blur"/><feMergeNode in="SourceGraphic"/></feMerge></filter>
  </defs>
  <circle cx="40" cy="40" r="33" fill="url(#glass)" filter="url(#softShadow)"/>
  <circle cx="40" cy="40" r="33" stroke="url(#rim)" stroke-width="0.85"/>
  <path d="M19 23C27 13 49 10 62 24" stroke="#fff" stroke-opacity="0.12" stroke-width="0.85" stroke-linecap="round"/>
  <path d="M21 58C31 68 53 69 62 55" stroke="#fff" stroke-opacity="0.07" stroke-width="1" stroke-linecap="round"/>
  <g filter="url(#glow)" fill="#D8D8D8">
    <path d="M47.2 37.5C47.1 32.9 51 30.6 51.2 30.5C49 27.3 45.8 26.9 44.7 26.8C41.9 26.5 39.2 28.4 37.8 28.4C36.3 28.4 34.1 26.9 31.7 27C28.6 27.1 25.7 28.9 24.1 31.7C20.8 37.5 23.3 46 26.5 50.7C28.1 53 30 55.6 32.5 55.5C34.9 55.4 35.8 54 38.7 54C41.5 54 42.4 55.5 44.9 55.4C47.5 55.4 49.1 53.1 50.7 50.8C52.5 48.1 53.3 45.5 53.3 45.4C53.2 45.4 47.3 43.1 47.2 37.5Z"/>
    <path d="M43.1 23.9C44.4 22.3 45.3 20.1 45.1 18C43.2 18.1 41 19.3 39.6 20.9C38.3 22.3 37.2 24.6 37.5 26.6C39.6 26.8 41.7 25.5 43.1 23.9Z"/>
  </g>
</svg>